<mxfile host="app.diagrams.net" modified="2022-05-18T11:52:53.347Z" agent="5.0 (Windows NT 10.0; Win64; x64) AppleWebKit/537.36 (KHTML, like Gecko) Chrome/101.0.4951.67 Safari/537.36" etag="p9eEdiwlypMl_WlfdVTb" version="17.4.0" type="github">
  <diagram id="6XC_W1PJ3fLef_XtjZwi" name="Page-1">
    <mxGraphModel dx="1422" dy="762" grid="1" gridSize="10" guides="1" tooltips="1" connect="1" arrows="1" fold="1" page="1" pageScale="1" pageWidth="827" pageHeight="1169" math="0" shadow="0">
      <root>
        <mxCell id="0" />
        <mxCell id="1" parent="0" />
        <mxCell id="XTb47GdCiur5tmvia0BV-3" style="edgeStyle=none;rounded=0;orthogonalLoop=1;jettySize=auto;html=1;exitX=0.5;exitY=1;exitDx=0;exitDy=0;entryX=0.5;entryY=0;entryDx=0;entryDy=0;" edge="1" parent="1" source="XTb47GdCiur5tmvia0BV-1" target="XTb47GdCiur5tmvia0BV-2">
          <mxGeometry relative="1" as="geometry" />
        </mxCell>
        <mxCell id="XTb47GdCiur5tmvia0BV-1" value="" style="ellipse;whiteSpace=wrap;html=1;aspect=fixed;fillColor=#404040;" vertex="1" parent="1">
          <mxGeometry x="374" y="20" width="80" height="80" as="geometry" />
        </mxCell>
        <mxCell id="XTb47GdCiur5tmvia0BV-5" style="edgeStyle=none;rounded=0;orthogonalLoop=1;jettySize=auto;html=1;entryX=0.5;entryY=0;entryDx=0;entryDy=0;" edge="1" parent="1" source="XTb47GdCiur5tmvia0BV-2" target="XTb47GdCiur5tmvia0BV-4">
          <mxGeometry relative="1" as="geometry" />
        </mxCell>
        <mxCell id="XTb47GdCiur5tmvia0BV-2" value="Pièces détachées assemblés par un technicien" style="rounded=1;whiteSpace=wrap;html=1;" vertex="1" parent="1">
          <mxGeometry x="354" y="130" width="120" height="60" as="geometry" />
        </mxCell>
        <mxCell id="XTb47GdCiur5tmvia0BV-7" style="edgeStyle=none;rounded=0;orthogonalLoop=1;jettySize=auto;html=1;exitX=0.5;exitY=1;exitDx=0;exitDy=0;entryX=0.5;entryY=0;entryDx=0;entryDy=0;" edge="1" parent="1" source="XTb47GdCiur5tmvia0BV-4" target="XTb47GdCiur5tmvia0BV-6">
          <mxGeometry relative="1" as="geometry" />
        </mxCell>
        <mxCell id="XTb47GdCiur5tmvia0BV-4" value="contrôle qualité" style="rounded=1;whiteSpace=wrap;html=1;" vertex="1" parent="1">
          <mxGeometry x="354" y="220" width="120" height="60" as="geometry" />
        </mxCell>
        <mxCell id="XTb47GdCiur5tmvia0BV-8" style="edgeStyle=none;rounded=0;orthogonalLoop=1;jettySize=auto;html=1;exitX=1;exitY=0.5;exitDx=0;exitDy=0;entryX=1;entryY=0.5;entryDx=0;entryDy=0;" edge="1" parent="1" source="XTb47GdCiur5tmvia0BV-6" target="XTb47GdCiur5tmvia0BV-2">
          <mxGeometry relative="1" as="geometry">
            <Array as="points">
              <mxPoint x="570" y="365" />
              <mxPoint x="570" y="160" />
            </Array>
          </mxGeometry>
        </mxCell>
        <mxCell id="XTb47GdCiur5tmvia0BV-11" style="edgeStyle=none;rounded=0;orthogonalLoop=1;jettySize=auto;html=1;entryX=0.5;entryY=0;entryDx=0;entryDy=0;" edge="1" parent="1" source="XTb47GdCiur5tmvia0BV-6" target="XTb47GdCiur5tmvia0BV-10">
          <mxGeometry relative="1" as="geometry" />
        </mxCell>
        <mxCell id="XTb47GdCiur5tmvia0BV-6" value="Bonne qualité" style="rhombus;whiteSpace=wrap;html=1;" vertex="1" parent="1">
          <mxGeometry x="367" y="310" width="94" height="90" as="geometry" />
        </mxCell>
        <mxCell id="XTb47GdCiur5tmvia0BV-14" style="edgeStyle=none;rounded=0;orthogonalLoop=1;jettySize=auto;html=1;exitX=0.5;exitY=1;exitDx=0;exitDy=0;" edge="1" parent="1" source="XTb47GdCiur5tmvia0BV-10" target="XTb47GdCiur5tmvia0BV-13">
          <mxGeometry relative="1" as="geometry" />
        </mxCell>
        <mxCell id="XTb47GdCiur5tmvia0BV-10" value="certification" style="rounded=1;whiteSpace=wrap;html=1;" vertex="1" parent="1">
          <mxGeometry x="354" y="440" width="120" height="60" as="geometry" />
        </mxCell>
        <mxCell id="XTb47GdCiur5tmvia0BV-15" style="edgeStyle=none;rounded=0;orthogonalLoop=1;jettySize=auto;html=1;" edge="1" parent="1" source="XTb47GdCiur5tmvia0BV-13">
          <mxGeometry relative="1" as="geometry">
            <mxPoint x="480" y="160" as="targetPoint" />
            <Array as="points">
              <mxPoint x="580" y="580" />
              <mxPoint x="580" y="160" />
            </Array>
          </mxGeometry>
        </mxCell>
        <mxCell id="XTb47GdCiur5tmvia0BV-17" style="edgeStyle=none;rounded=0;orthogonalLoop=1;jettySize=auto;html=1;exitX=0.5;exitY=1;exitDx=0;exitDy=0;entryX=0.5;entryY=0;entryDx=0;entryDy=0;" edge="1" parent="1" source="XTb47GdCiur5tmvia0BV-13" target="XTb47GdCiur5tmvia0BV-16">
          <mxGeometry relative="1" as="geometry" />
        </mxCell>
        <mxCell id="XTb47GdCiur5tmvia0BV-13" value="Validation" style="rhombus;whiteSpace=wrap;html=1;" vertex="1" parent="1">
          <mxGeometry x="374" y="540" width="80" height="80" as="geometry" />
        </mxCell>
        <mxCell id="XTb47GdCiur5tmvia0BV-19" style="edgeStyle=none;rounded=0;orthogonalLoop=1;jettySize=auto;html=1;exitX=0.5;exitY=1;exitDx=0;exitDy=0;" edge="1" parent="1" source="XTb47GdCiur5tmvia0BV-16" target="XTb47GdCiur5tmvia0BV-18">
          <mxGeometry relative="1" as="geometry" />
        </mxCell>
        <mxCell id="XTb47GdCiur5tmvia0BV-16" value="Mise en stock" style="rounded=1;whiteSpace=wrap;html=1;" vertex="1" parent="1">
          <mxGeometry x="354" y="640" width="120" height="60" as="geometry" />
        </mxCell>
        <mxCell id="XTb47GdCiur5tmvia0BV-18" value="" style="ellipse;whiteSpace=wrap;html=1;aspect=fixed;" vertex="1" parent="1">
          <mxGeometry x="374" y="750" width="80" height="80" as="geometry" />
        </mxCell>
        <mxCell id="XTb47GdCiur5tmvia0BV-20" value="" style="ellipse;whiteSpace=wrap;html=1;aspect=fixed;fillColor=#404040;" vertex="1" parent="1">
          <mxGeometry x="384" y="760" width="60" height="60" as="geometry" />
        </mxCell>
      </root>
    </mxGraphModel>
  </diagram>
</mxfile>
